<svg width="46" height="46" viewBox="0 0 46 46" fill="none" xmlns="http://www.w3.org/2000/svg">
<path d="M6.37891 19.4062L21.4727 3.59375C21.8919 3.11458 22.401 2.875 23 2.875C23.599 2.875 24.1081 3.08464 24.5273 3.50391L39.6211 19.3164C40.4596 20.3945 40.4596 21.4128 39.6211 22.3711C38.543 23.2096 37.5247 23.2096 36.5664 22.3711L25.1562 10.4219V40.9688C25.0365 42.2266 24.3477 42.9154 23.0898 43.0352C22.4909 43.0352 21.9818 42.8555 21.5625 42.4961C21.0833 42.0768 20.8438 41.5677 20.8438 40.9688V10.4219L9.43359 22.3711C8.47526 23.2096 7.45703 23.2096 6.37891 22.3711C5.54036 21.4128 5.54036 20.4245 6.37891 19.4062Z" fill="#1CA8CB"/>
</svg>
