<svg width="13" height="13" viewBox="0 0 13 13" fill="none" xmlns="http://www.w3.org/2000/svg">
<path d="M6.15237 2.98047C7.87502 2.98047 9.2969 4.40234 9.2969 6.125C9.2969 7.875 7.87502 9.26953 6.15237 9.26953C4.40237 9.26953 3.00784 7.875 3.00784 6.125C3.00784 4.40234 4.40237 2.98047 6.15237 2.98047ZM6.15237 8.17578C7.27346 8.17578 8.17581 7.27344 8.17581 6.125C8.17581 5.00391 7.27346 4.10156 6.15237 4.10156C5.00393 4.10156 4.10159 5.00391 4.10159 6.125C4.10159 7.27344 5.03127 8.17578 6.15237 8.17578ZM10.1446 2.87109C10.1446 3.28125 9.81643 3.60938 9.40627 3.60938C8.99612 3.60938 8.66799 3.28125 8.66799 2.87109C8.66799 2.46094 8.99612 2.13281 9.40627 2.13281C9.81643 2.13281 10.1446 2.46094 10.1446 2.87109ZM12.2227 3.60938C12.2774 4.62109 12.2774 7.65625 12.2227 8.66797C12.168 9.65234 11.9492 10.5 11.2383 11.2383C10.5274 11.9492 9.65237 12.168 8.66799 12.2227C7.65627 12.2773 4.62112 12.2773 3.6094 12.2227C2.62502 12.168 1.77737 11.9492 1.03909 11.2383C0.328149 10.5 0.109399 9.65234 0.0547118 8.66797C2.43187e-05 7.65625 2.43187e-05 4.62109 0.0547118 3.60938C0.109399 2.625 0.328149 1.75 1.03909 1.03906C1.77737 0.328125 2.62502 0.109375 3.6094 0.0546875C4.62112 0 7.65627 0 8.66799 0.0546875C9.65237 0.109375 10.5274 0.328125 11.2383 1.03906C11.9492 1.75 12.168 2.625 12.2227 3.60938ZM10.9102 9.73438C11.2383 8.94141 11.1563 7.02734 11.1563 6.125C11.1563 5.25 11.2383 3.33594 10.9102 2.51562C10.6914 1.99609 10.2813 1.55859 9.76174 1.36719C8.94143 1.03906 7.02737 1.12109 6.15237 1.12109C5.25002 1.12109 3.33596 1.03906 2.54299 1.36719C1.99612 1.58594 1.58596 1.99609 1.36721 2.51562C1.03909 3.33594 1.12112 5.25 1.12112 6.125C1.12112 7.02734 1.03909 8.94141 1.36721 9.73438C1.58596 10.2812 1.99612 10.6914 2.54299 10.9102C3.33596 11.2383 5.25002 11.1562 6.15237 11.1562C7.02737 11.1562 8.94143 11.2383 9.76174 10.9102C10.2813 10.6914 10.7188 10.2812 10.9102 9.73438Z" fill="#1CA8CB"/>
</svg>
