<svg width="14" height="14" viewBox="0 0 14 14" fill="none" xmlns="http://www.w3.org/2000/svg">
<path d="M11.875 2.0625C13.1875 3.375 14 5.09375 14 6.96875C14 10.7812 10.8125 13.9062 6.96876 13.9062C5.81251 13.9062 4.68751 13.5938 3.65626 13.0625L6.19888e-06 14L0.968756 10.4062C0.375006 9.375 0.0312562 8.1875 0.0312562 6.9375C0.0312562 3.125 3.15626 0 6.96876 0C8.84376 0 10.5938 0.75 11.875 2.0625ZM6.96876 12.7188C10.1563 12.7188 12.8125 10.125 12.8125 6.96875C12.8125 5.40625 12.1563 3.96875 11.0625 2.875C9.96876 1.78125 8.53126 1.1875 7.00001 1.1875C3.81251 1.1875 1.21876 3.78125 1.21876 6.9375C1.21876 8.03125 1.53126 9.09375 2.09376 10.0312L2.25001 10.25L1.65626 12.375L3.84376 11.7812L4.03126 11.9062C4.93751 12.4375 5.93751 12.7188 6.96876 12.7188ZM10.1563 8.40625C10.3125 8.5 10.4375 8.53125 10.4688 8.625C10.5313 8.6875 10.5313 9.03125 10.375 9.4375C10.2188 9.84375 9.53126 10.2188 9.21876 10.25C8.65626 10.3438 8.21876 10.3125 7.12501 9.8125C5.37501 9.0625 4.25001 7.3125 4.15626 7.21875C4.06251 7.09375 3.46876 6.28125 3.46876 5.40625C3.46876 4.5625 3.90626 4.15625 4.06251 3.96875C4.21876 3.78125 4.40626 3.75 4.53126 3.75C4.62501 3.75 4.75001 3.75 4.84376 3.75C4.96876 3.75 5.09376 3.71875 5.25001 4.0625C5.37501 4.40625 5.75001 5.25 5.78126 5.34375C5.81251 5.4375 5.84376 5.53125 5.78126 5.65625C5.46876 6.3125 5.09376 6.28125 5.28126 6.59375C5.96876 7.75 6.62501 8.15625 7.65626 8.65625C7.81251 8.75 7.90626 8.71875 8.03126 8.625C8.12501 8.5 8.46876 8.09375 8.56251 7.9375C8.68751 7.75 8.81251 7.78125 8.96876 7.84375C9.12501 7.90625 9.96876 8.3125 10.1563 8.40625Z" fill="#1CA8CB"/>
</svg>
