<svg width="15" height="11" viewBox="0 0 15 11" fill="none" xmlns="http://www.w3.org/2000/svg">
<path d="M14.6289 1.66797C14.957 2.81641 14.957 5.27734 14.957 5.27734C14.957 5.27734 14.957 7.71094 14.6289 8.88672C14.4648 9.54297 13.9453 10.0352 13.3164 10.1992C12.1406 10.5 7.49218 10.5 7.49218 10.5C7.49218 10.5 2.81639 10.5 1.64061 10.1992C1.01171 10.0352 0.492175 9.54297 0.328113 8.88672C-1.23978e-05 7.71094 -1.23978e-05 5.27734 -1.23978e-05 5.27734C-1.23978e-05 5.27734 -1.23978e-05 2.81641 0.328113 1.66797C0.492175 1.01172 1.01171 0.492188 1.64061 0.328125C2.81639 0 7.49218 0 7.49218 0C7.49218 0 12.1406 0 13.3164 0.328125C13.9453 0.492188 14.4648 1.01172 14.6289 1.66797ZM5.96093 7.49219L9.84374 5.27734L5.96093 3.0625V7.49219Z" fill="#1CA8CB"/>
</svg>
