<svg width="16" height="16" viewBox="0 0 16 16" fill="none" xmlns="http://www.w3.org/2000/svg">
<path d="M11 8C10.9792 8.85417 10.6875 9.5625 10.125 10.125C9.5625 10.6875 8.85417 10.9792 8 11C7.14583 10.9792 6.4375 10.6875 5.875 10.125C5.3125 9.5625 5.02083 8.85417 5 8C5.02083 7.14583 5.3125 6.4375 5.875 5.875C6.4375 5.3125 7.14583 5.02083 8 5C8.85417 5.02083 9.5625 5.3125 10.125 5.875C10.6875 6.4375 10.9792 7.14583 11 8ZM8 6C7.4375 6.02083 6.96875 6.21875 6.59375 6.59375C6.21875 6.96875 6.02083 7.4375 6 8C6.02083 8.5625 6.21875 9.03125 6.59375 9.40625C6.96875 9.78125 7.4375 9.97917 8 10C8.5625 9.97917 9.03125 9.78125 9.40625 9.40625C9.78125 9.03125 9.97917 8.5625 10 8C9.97917 7.4375 9.78125 6.96875 9.40625 6.59375C9.03125 6.21875 8.5625 6.02083 8 6ZM8 0C8.3125 0.020833 8.47917 0.1875 8.5 0.5V2.03125C9.97917 2.17708 11.2292 2.75 12.25 3.75C13.25 4.77083 13.8229 6.02083 13.9688 7.5H15.5C15.8125 7.52083 15.9792 7.6875 16 8C15.9792 8.3125 15.8125 8.47917 15.5 8.5H13.9688C13.8229 9.97917 13.25 11.2292 12.25 12.25C11.2292 13.25 9.97917 13.8229 8.5 13.9688V15.5C8.47917 15.8125 8.3125 15.9792 8 16C7.6875 15.9792 7.52083 15.8125 7.5 15.5V13.9688C6.02083 13.8229 4.77083 13.25 3.75 12.25C2.75 11.2292 2.17708 9.97917 2.03125 8.5H0.5C0.1875 8.47917 0.0208333 8.3125 0 8C0.0208333 7.6875 0.1875 7.52083 0.5 7.5H2.03125C2.17708 6.02083 2.75 4.77083 3.75 3.75C4.77083 2.75 6.02083 2.17708 7.5 2.03125V0.5C7.52083 0.1875 7.6875 0.020833 8 0ZM3 8C3.04167 9.41667 3.53125 10.5938 4.46875 11.5312C5.40625 12.4688 6.58333 12.9583 8 13C9.41667 12.9583 10.5938 12.4688 11.5312 11.5312C12.4688 10.5938 12.9583 9.41667 13 8C12.9583 6.58333 12.4688 5.40625 11.5312 4.46875C10.5938 3.53125 9.41667 3.04167 8 3C6.58333 3.04167 5.40625 3.53125 4.46875 4.46875C3.53125 5.40625 3.04167 6.58333 3 8Z" fill="#6E7070"/>
</svg>
