<svg width="16" height="16" viewBox="0 0 16 16" fill="none" xmlns="http://www.w3.org/2000/svg">
<path d="M7.5 3.5C7.52083 3.1875 7.6875 3.02083 8 3C8.3125 3.02083 8.47917 3.1875 8.5 3.5V7.71875L11.2812 9.59375C11.5104 9.78125 11.5521 10.0104 11.4062 10.2812C11.2188 10.5104 10.9896 10.5521 10.7188 10.4062L7.71875 8.40625C7.57292 8.30208 7.48958 8.16667 7.46875 8L7.5 3.5ZM8 0C9.5 0.020833 10.8438 0.385417 12.0312 1.09375C13.2396 1.80208 14.1979 2.76042 14.9062 3.96875C15.6146 5.15625 15.9792 6.5 16 8C15.9792 9.5 15.6146 10.8438 14.9062 12.0312C14.1979 13.2396 13.2396 14.1979 12.0312 14.9062C10.8438 15.6146 9.5 15.9792 8 16C6.5 15.9792 5.15625 15.6146 3.96875 14.9062C2.76042 14.1979 1.80208 13.2396 1.09375 12.0312C0.385417 10.8438 0.0208333 9.5 0 8C0.0208333 6.5 0.385417 5.15625 1.09375 3.96875C1.80208 2.76042 2.76042 1.80208 3.96875 1.09375C5.15625 0.385417 6.5 0.020833 8 0ZM1 8C1.02083 9.3125 1.34375 10.4896 1.96875 11.5312C2.57292 12.5938 3.40625 13.4271 4.46875 14.0312C5.51042 14.6562 6.6875 14.9792 8 15C9.3125 14.9792 10.4896 14.6562 11.5312 14.0312C12.5938 13.4271 13.4271 12.5938 14.0312 11.5312C14.6562 10.4896 14.9792 9.3125 15 8C14.9792 6.6875 14.6562 5.51042 14.0312 4.46875C13.4271 3.40625 12.5938 2.57292 11.5312 1.96875C10.4896 1.34375 9.3125 1.02083 8 1C6.6875 1.02083 5.51042 1.34375 4.46875 1.96875C3.40625 2.57292 2.57292 3.40625 1.96875 4.46875C1.34375 5.51042 1.02083 6.6875 1 8Z" fill="#113D48"/>
</svg>
